<?xml version="1.0" encoding="utf-8"?>
<!-- Generator: Adobe Illustrator 25.3.1, SVG Export Plug-In . SVG Version: 6.00 Build 0)  -->
<svg version="1.1" id="Layer_1" xmlns="http://www.w3.org/2000/svg" xmlns:xlink="http://www.w3.org/1999/xlink" x="0px" y="0px"
	 viewBox="0 0 20 20" style="enable-background:new 0 0 20 20;" xml:space="preserve">
<style type="text/css">
	.st0{fill:#FCB130;stroke:#000000;stroke-miterlimit:10;}
	.st1{fill:#F26522;stroke:#000000;stroke-miterlimit:10;}
</style>
<path class="st0" d="M10,0.7c-0.2,0,0,0.8-0.3,2C9.3,4,8.7,4.8,8.3,5.3C7,6.8,6.3,6.4,5.2,7.6c-1.9,1.9-1.8,4.6-1.8,4.8
	c0,0.5,0.2,2.4,1.6,3.9C6.7,18,9,18,10.4,18c1.2,0,3.2,0,4.7-1.5c1-0.9,1.9-2.6,1.4-3.5c-0.1-0.2-0.4-0.5-0.7-0.5
	c-0.4,0-0.6,0.7-0.9,1.2c-0.7,1-2.6,1.6-4.1,1c-1.3-0.5-2.3-2-2.2-3.2c0.1-1,0.9-1.1,1.8-2.6c0.2-0.3,1.3-2.3,1.1-4.8
	C11.2,2.2,10.3,0.7,10,0.7z"/>
<path class="st1" d="M13.3,5.1c-0.3,0.1,0.2,1.4-0.5,2.9c-0.6,1.1-1.3,1.3-1.5,2.4c0,0.2-0.2,1.2,0.4,1.8c0.6,0.5,1.7,0.3,2.4-0.2
	c1.3-1,0.9-3.3,0.7-4C14.4,6.4,13.6,5,13.3,5.1z"/>
</svg>
