<?xml version="1.0" encoding="utf-8"?>
<!-- Generator: Adobe Illustrator 25.3.1, SVG Export Plug-In . SVG Version: 6.00 Build 0)  -->
<svg version="1.1" id="Layer_1" xmlns="http://www.w3.org/2000/svg" xmlns:xlink="http://www.w3.org/1999/xlink" x="0px" y="0px"
	 viewBox="0 0 20 20" style="enable-background:new 0 0 20 20;" xml:space="preserve">
<style type="text/css">
	.st0{fill:#1C75BC;stroke:#000000;stroke-miterlimit:10;}
</style>
<path class="st0" d="M2.6,7C3.2,6.3,3.8,5.8,4,5.7c0.4-0.3,1.4-0.9,2.7-0.8c1.6,0.1,2.6,1,2.9,1.3c0.6,0.5,0.5,0.7,1.5,2
	c0.9,1.1,1.3,1.7,1.8,1.9c1,0.3,2.4-0.1,3-1c0.5-0.8,0.5-1.8,0.5-1.9c0-0.6-0.3-1-0.1-1.1c0.2-0.2,0.8,0.2,1.1,0.6
	c1.1,1,1.3,2.9,0.9,4.4c-0.1,0.5-0.6,2.3-2.4,3.4c-0.2,0.1-2.4,1.4-4.4,0.5c-1-0.5-1.6-1.4-2.1-2.3c-0.7-1.2-0.9-2-1.9-2.9
	C6.8,9.1,6.4,9,6.3,9c-0.9,0-1.6,0.7-1.9,1.5c-0.5,1.2,0.2,2.5,0.2,2.6c0.2,0.4,0.4,0.6,0.3,0.7c-0.2,0.3-1.6,0.1-2.4-0.6
	C1,11.8,1.3,8.7,2.6,7z"/>
</svg>
